<svg xmlns="http://www.w3.org/2000/svg" xmlns:xlink="http://www.w3.org/1999/xlink" viewBox="0 0 512 512"><defs><style> rect { fill-opacity: 0.0 } .rss{ fill: #f0f0f0 } .rss:hover{ fill: #fff } rect:hover + .rss{ fill: #fff } </style></defs><a xlink:href="https://clutte.red/posts.atom"><rect x="0" y="0" height="512" width="512" /><path class="rss" d="M68.1 375.5c-37.6 0-68.1 30.7-68.1 68 0 37.6 30.5 67.9 68.1 67.9 37.7 0 68.2-30.3 68.2-67.9C136.4 406.1 105.9 375.5 68.1 375.5zM0.1 174v98.1c63.9 0 124 25 169.2 70.3 45.2 45.2 70.1 105.5 70.1 169.7H338C338 325.6 186.4 174 0.1 174zM0.2 0v98.2c227.9 0 413.4 185.7 413.4 413.8H512C512 229.8 282.4 0 0.2 0z"/></a></svg>
